<?xml version="1.0" encoding="utf-8"?>
<!-- Generator: Adobe Illustrator 18.1.0, SVG Export Plug-In . SVG Version: 6.00 Build 0)  -->
<svg version="1.1" id="Layer_1" xmlns="http://www.w3.org/2000/svg" xmlns:xlink="http://www.w3.org/1999/xlink" x="0px" y="0px"
	 viewBox="0 0 72 72" enable-background="new 0 0 72 72" xml:space="preserve">
<path fill="#FFFFFF" d="M67.5,36.4c0,17.2-14.1,31.1-31.5,31.1c-17.4,0-31.5-13.9-31.5-31.1C4.5,19.3,18.6,4.5,36,4.5
	C53.4,4.5,67.5,19.3,67.5,36.4z"/>
<ellipse fill="#5590CC" cx="37.3" cy="50.3" rx="17.3" ry="21.1"/>
<polygon fill="#F6CD34" points="5.1,49.5 13.3,53 10.4,59.5 21.5,56.5 16.1,46.6 "/>
<polygon fill="#F6CD34" points="62.1,59.5 59.4,52.9 66.9,48.6 56.7,46.3 51.8,57.2 "/>
<path fill="#999999" d="M21.5,56.2V53c0,0-1.7,0.1-5.5,1.2L21.5,56.2z"/>
<path fill="#999999" d="M51.8,57.2V53c0,0,1.7,0.1,5.5,1.5L51.8,57.2z"/>
<path fill="#FDCC9A" d="M49.6,24.7c0,7.6-6.1,13.7-13.6,13.7s-13.6-6.1-13.6-13.7c0-7.3,5.6-13.2,12.7-13.7c0.1,0,0.3,0,0.4,0
	c0.2,0,0.3,0,0.5,0C43.5,11,49.6,17.1,49.6,24.7z"/>
<path fill="#F6CD34" d="M33.2,7.7c0,0-0.2,0.9-1,0.5c-0.8-0.4,0.5-1,0.5-1s2-0.7,1.4,1.1c-0.6,1.9-1,3-1,3s1.8-0.6,5-0.1
	c0,0-0.1-5.2-1.6-5.6C35,5.2,33,5.2,32,6.2c-1,1-1.5,2.5,0,2.9C33.5,9.5,33.2,8,33.2,7.7z"/>
<path fill="#FFFFFF" d="M36,31c-4,0-7.7-1.1-10.7-2.9C26.5,32.6,30.8,36,36,36s9.5-3.4,10.7-7.9C43.7,29.9,40,31,36,31z"/>
<ellipse fill="#FFFFFF" cx="30.6" cy="22.3" rx="2.9" ry="2.4"/>
<ellipse fill="#5590CC" cx="31.1" cy="22.3" rx="1.3" ry="1.2"/>
<path fill="#F6CD34" d="M36,0C16.1,0,0,16.1,0,36c0,19.9,16.1,36,36,36c19.9,0,36-16.1,36-36C72,16.1,55.9,0,36,0z M36,67.5
	c-17.4,0-31.5-13.7-31.5-31.1C4.5,19,18.6,4.9,36,4.9c17.4,0,31.5,14.1,31.5,31.5C67.5,53.8,53.4,67.5,36,67.5z"/>
<g>
	<path fill="#999999" d="M57.3,54.1c-13.4-3.2-27.4-3.2-40.9,0c-0.8-3.5-1.7-7-2.5-10.4c15.1-3.6,30.8-3.6,45.9,0
		C58.9,47.2,58.1,50.6,57.3,54.1z"/>
</g>
<g>
	<g>
		<path fill="#F6CD34" d="M52.2,46.2c0.1-0.4-0.4-0.7-1.2-0.8c-0.4-0.1-0.6-0.1-0.8-0.1c-0.1,0.4-0.1,0.8-0.2,1.2
			c0.2,0,0.4,0.1,0.6,0.1C51.6,46.8,52.1,46.6,52.2,46.2z"/>
		<path fill="#F6CD34" d="M50.5,47.5c-0.2,0-0.4-0.1-0.6-0.1c-0.1,0.5-0.1,1-0.2,1.5c0.2,0,0.4,0.1,0.7,0.1c0.8,0.1,1.5,0,1.6-0.5
			C52.1,47.9,51.4,47.6,50.5,47.5z"/>
		<path fill="#F6CD34" d="M13.9,43.7c0.8,3.5,1.7,7,2.5,10.4c13.4-3.2,27.4-3.2,40.9,0c0.8-3.5,1.7-7,2.5-10.4
			C44.7,40.1,29,40.1,13.9,43.7z M27.9,49.2c-0.6,0.1-1.2,0.1-1.8,0.2c-0.6-0.6-1.3-1.2-1.9-1.8c-0.5-0.5-1.1-1.1-1.6-1.6
			c0,0,0,0,0,0c0.2,0.7,0.3,1.4,0.4,2.2c0.1,0.5,0.2,1,0.2,1.6c-0.5,0.1-1.1,0.2-1.6,0.3c-0.3-1.7-0.6-3.4-0.9-5.1
			c0.7-0.1,1.4-0.2,2.1-0.3c0.7,0.5,1.3,1.1,1.9,1.7c0.5,0.5,1.1,1.1,1.5,1.6c0,0,0,0,0,0c-0.2-0.7-0.3-1.4-0.4-2.1
			c-0.1-0.5-0.1-1-0.2-1.5c0.6-0.1,1.1-0.1,1.7-0.2C27.6,45.7,27.8,47.5,27.9,49.2z M35.1,48.8c-1.6,0-3.3,0.1-4.9,0.2
			c-0.1-1.7-0.3-3.5-0.4-5.2c1.7-0.1,3.3-0.2,5-0.2c0,0.3,0,0.6,0,1c-1,0-2.1,0.1-3.1,0.1c0,0.4,0,0.7,0.1,1.1
			c1-0.1,1.9-0.1,2.9-0.1c0,0.3,0,0.6,0,1c-1,0-1.9,0.1-2.9,0.1c0,0.4,0,0.8,0.1,1.2c1.1-0.1,2.1-0.1,3.2-0.1
			C35,48.1,35.1,48.4,35.1,48.8z M44.3,49.1C43.7,49,43,49,42.4,48.9c-0.2-0.8-0.3-1.5-0.5-2.3c-0.1-0.5-0.2-1-0.3-1.6c0,0,0,0,0,0
			c-0.2,0.6-0.3,1.1-0.5,1.6c-0.3,0.7-0.6,1.5-0.8,2.2c-0.6,0-1.3,0-1.9-0.1c-0.6-1.7-1.2-3.5-1.8-5.2c0.7,0,1.3,0,2,0
			c0.2,0.7,0.4,1.4,0.6,2.2c0.2,0.6,0.3,1.3,0.4,1.8c0,0,0,0,0,0c0.1-0.6,0.3-1.2,0.6-1.8c0.2-0.7,0.5-1.4,0.8-2.1
			c0.7,0,1.3,0.1,2,0.1c0.2,0.7,0.3,1.5,0.5,2.2c0.1,0.6,0.2,1.2,0.3,1.8c0,0,0,0,0,0c0.2-0.6,0.4-1.2,0.6-1.8
			c0.3-0.7,0.5-1.4,0.8-2.1c0.6,0.1,1.2,0.1,1.9,0.2C45.9,45.7,45.1,47.4,44.3,49.1z M52.8,49.7c-0.6,0.2-1.6,0.2-3.1,0
			c-0.8-0.1-1.5-0.2-1.9-0.3c0.2-1.7,0.4-3.4,0.6-5.1c0.5,0,1.5,0.1,2.4,0.2c1.1,0.2,1.8,0.4,2.3,0.7c0.5,0.3,0.9,0.7,0.8,1.2
			c-0.1,0.5-0.6,0.8-1.5,0.9c0,0,0,0,0,0c0.9,0.3,1.4,0.9,1.3,1.5C53.7,49.3,53.4,49.6,52.8,49.7z"/>
	</g>
</g>
<path fill="#5590CC" d="M45,20"/>
<path fill="#5590CC" d="M45,21.4c0,0-2.4-1.9-4.1,0c-1.7,1.9-2,2.7-2,2.7s3.9-2.1,5.8-0.3l0.3-1c0,0-2-0.6-4.1,0
	c0,0,1.3-2.4,4.1-0.7V21.4z"/>
<g>
</g>
<g>
</g>
<g>
</g>
<g>
</g>
<g>
</g>
<g>
</g>
<g>
</g>
<g>
</g>
<g>
</g>
<g>
</g>
<g>
</g>
<g>
</g>
<g>
</g>
<g>
</g>
<g>
</g>
</svg>
